<svg width="30" height="28" viewBox="0 0 30 28" fill="none" xmlns="http://www.w3.org/2000/svg">
<path d="M10.7067 27V16.7387C10.7067 15.9621 10.7067 15.5738 10.8578 15.2771C10.9908 15.0162 11.2029 14.8041 11.4638 14.6711C11.7604 14.52 12.1487 14.52 12.9253 14.52H16.808C17.5846 14.52 17.9729 14.52 18.2695 14.6711C18.5305 14.8041 18.7426 15.0162 18.8755 15.2771C19.0267 15.5738 19.0267 15.9621 19.0267 16.7387V27M1 11.0533L13.5355 1.65173C14.0128 1.2937 14.2515 1.11469 14.5137 1.04568C14.7451 0.984772 14.9883 0.984772 15.2197 1.04568C15.4818 1.11469 15.7205 1.2937 16.1979 1.65173L28.7333 11.0533M3.77334 8.97333V22.5627C3.77334 24.1159 3.77334 24.8925 4.07561 25.4857C4.3415 26.0076 4.76577 26.4318 5.28761 26.6977C5.88085 27 6.65746 27 8.21067 27H21.5227C23.0759 27 23.8525 27 24.4457 26.6977C24.9676 26.4318 25.3918 26.0076 25.6577 25.4857C25.96 24.8925 25.96 24.1159 25.96 22.5627V8.97333L17.5291 2.65013C16.5743 1.93408 16.097 1.57605 15.5727 1.43803C15.1099 1.31621 14.6235 1.31621 14.1607 1.43803C13.6364 1.57605 13.159 1.93408 12.2043 2.65013L3.77334 8.97333Z" stroke="#1B1F1C" stroke-width="2" stroke-linecap="round" stroke-linejoin="round"/>
</svg>
