<svg width="30" height="30" viewBox="0 0 30 30" fill="none" xmlns="http://www.w3.org/2000/svg">
<path d="M6.31118 24.6699C7.10201 22.8068 8.9484 21.5 11.1 21.5H18.9C21.0516 21.5 22.898 22.8068 23.6888 24.6699M20.2 11.75C20.2 14.6219 17.8719 16.95 15 16.95C12.1281 16.95 9.8 14.6219 9.8 11.75C9.8 8.87812 12.1281 6.55 15 6.55C17.8719 6.55 20.2 8.87812 20.2 11.75ZM28 15C28 22.1797 22.1797 28 15 28C7.8203 28 2 22.1797 2 15C2 7.8203 7.8203 2 15 2C22.1797 2 28 7.8203 28 15Z" stroke="#B4B4B4" stroke-width="2" stroke-linecap="round" stroke-linejoin="round"/>
</svg>
