<svg width="103" height="147" viewBox="0 0 103 147" fill="none" xmlns="http://www.w3.org/2000/svg">
<path d="M4.15491 19.7021H97.3651C98.3722 19.7021 99.3379 20.1023 100.05 20.8147C100.762 21.527 101.162 22.4931 101.162 23.5005V141.527C101.162 142.535 100.762 143.501 100.05 144.213C99.3379 144.925 98.3722 145.326 97.3651 145.326H4.15472C3.65612 145.326 3.16239 145.227 2.70174 145.036C2.24109 144.846 1.82254 144.566 1.46997 144.213C0.75793 143.501 0.35791 142.535 0.35791 141.527V23.5005C0.35791 22.4931 0.757951 21.527 1.47003 20.8147C2.1821 20.1023 3.14789 19.7021 4.15491 19.7021Z" fill="#1B1F1C"/>
<path d="M95.9449 135.022C95.9449 135.46 95.8587 135.893 95.6913 136.298C95.5238 136.702 95.2784 137.07 94.969 137.379C94.6596 137.689 94.2923 137.934 93.888 138.102C93.4837 138.269 93.0504 138.356 92.6129 138.356L9.86131 138.171C9.42372 138.171 8.99042 138.085 8.58615 137.917C8.18187 137.75 7.81454 137.504 7.50514 137.195C7.19573 136.885 6.9503 136.518 6.78286 136.113C6.61543 135.709 6.52927 135.275 6.5293 134.838L7.48377 31.4477C7.48376 31.01 7.56995 30.5766 7.7374 30.1722C7.90485 29.7677 8.15028 29.4003 8.45969 29.0908C8.7691 28.7813 9.13642 28.5357 9.54068 28.3682C9.94494 28.2007 10.3782 28.1145 10.8158 28.1145L92.6129 27.3933C93.4966 27.3933 94.3441 27.7445 94.9689 28.3696C95.5938 28.9947 95.9449 29.8425 95.9449 30.7265V135.022Z" fill="#EEEFEF"/>
<path d="M9.86154 27.3933H91.6584C92.5421 27.3933 93.3896 27.7445 94.0145 28.3696C94.6393 28.9947 94.9904 29.8425 94.9904 30.7265V134.301C94.9904 135.185 94.6393 136.033 94.0145 136.658C93.3896 137.283 92.5421 137.634 91.6584 137.634H9.86133C8.97762 137.634 8.1301 137.283 7.50523 136.658C6.88035 136.033 6.5293 135.185 6.5293 134.301V30.7267C6.5293 29.8427 6.88037 28.9948 7.50529 28.3697C8.13021 27.7445 8.97778 27.3933 9.86154 27.3933Z" fill="#EEEFEF"/>
<path opacity="0.1" d="M24.1777 19.7046V33.9212C24.1777 36.019 25.9605 37.7195 28.1595 37.7195H73.3601C75.5594 37.7195 77.3419 36.019 77.3419 33.9212V19.7046H24.1777Z" fill="#231F20"/>
<path d="M72.4062 13.5304H69.1438V11.3813C69.1439 11.0214 69.073 10.665 68.9353 10.3325C68.7977 10 68.5959 9.69791 68.3415 9.44342C68.0871 9.18893 67.7851 8.98706 67.4527 8.84933C67.1204 8.7116 66.7641 8.64072 66.4044 8.64072H62.3094V2.74059C62.3094 2.38068 62.2385 2.0243 62.1009 1.69179C61.9632 1.35928 61.7614 1.05716 61.507 0.802668C61.2526 0.548178 60.9506 0.346308 60.6182 0.208586C60.2858 0.0708635 59.9295 -1.42022e-05 59.5698 2.13456e-09H42.1399C41.4134 3.44234e-05 40.7166 0.288793 40.2028 0.802752C39.6891 1.31671 39.4005 2.01377 39.4006 2.74059V8.64072H35.3056C34.9458 8.6407 34.5895 8.71158 34.2572 8.8493C33.9248 8.98702 33.6227 9.18889 33.3684 9.44338C33.114 9.69787 32.9122 10 32.7745 10.3325C32.6368 10.665 32.566 11.0214 32.566 11.3813V13.5304H29.3037C28.8051 13.5304 28.3114 13.6286 27.8507 13.8195C27.39 14.0104 26.9715 14.2902 26.6189 14.6429C26.2663 14.9956 25.9866 15.4144 25.7958 15.8752C25.605 16.336 25.5068 16.83 25.5068 17.3288V32.236C25.5068 32.7348 25.605 33.2287 25.7958 33.6896C25.9866 34.1504 26.2663 34.5691 26.6189 34.9218C26.9715 35.2745 27.39 35.5543 27.8507 35.7452C28.3114 35.9361 28.8051 36.0343 29.3037 36.0343H72.4062C72.9048 36.0343 73.3985 35.9361 73.8592 35.7452C74.3198 35.5543 74.7384 35.2745 75.091 34.9218C75.4435 34.5691 75.7232 34.1504 75.914 33.6896C76.1048 33.2287 76.203 32.7348 76.203 32.236V17.3288C76.203 16.3214 75.803 15.3553 75.091 14.643C74.3789 13.9306 73.4132 13.5304 72.4062 13.5304ZM59.3162 12.4516C59.3161 12.8319 59.1651 13.1966 58.8962 13.4655C58.6274 13.7344 58.2627 13.8855 57.8825 13.8855H44.0168C43.6367 13.8854 43.2721 13.7343 43.0033 13.4654C42.7345 13.1965 42.5835 12.8318 42.5835 12.4516V4.1651C42.5835 3.78484 42.7345 3.42016 43.0033 3.15127C43.2721 2.88239 43.6367 2.73132 44.0168 2.73129H57.8825C58.2627 2.73125 58.6273 2.88229 58.8962 3.15118C59.1651 3.42007 59.3161 3.78479 59.3162 4.1651V12.4516Z" fill="#1B1F1C"/>
<path d="M19.9837 32.5584C19.9837 33.0467 19.839 33.5241 19.5678 33.9301C19.2966 34.3361 18.9112 34.6526 18.4602 34.8395C18.0093 35.0263 17.513 35.0753 17.0343 34.98C16.5555 34.8848 16.1157 34.6497 15.7706 34.3044C15.4254 33.9591 15.1903 33.5192 15.0951 33.0403C14.9998 32.5614 15.0487 32.0649 15.2354 31.6138C15.4222 31.1627 15.7385 30.7771 16.1444 30.5057C16.5502 30.2344 17.0274 30.0896 17.5155 30.0896C18.1701 30.0896 18.7979 30.3497 19.2607 30.8127C19.7236 31.2757 19.9836 31.9036 19.9837 32.5584Z" fill="#1B1F1C"/>
<path d="M88.0759 32.5584C88.076 33.0467 87.9312 33.5241 87.6601 33.9301C87.3889 34.3361 87.0034 34.6526 86.5525 34.8394C86.1015 35.0263 85.6053 35.0752 85.1265 34.98C84.6478 34.8848 84.208 34.6496 83.8628 34.3044C83.5177 33.9591 83.2826 33.5192 83.1873 33.0403C83.0921 32.5613 83.1409 32.0649 83.3277 31.6138C83.5145 31.1626 83.8308 30.777 84.2367 30.5057C84.6425 30.2344 85.1197 30.0896 85.6078 30.0896C86.2624 30.0896 86.8901 30.3497 87.353 30.8127C87.8159 31.2757 88.0759 31.9036 88.0759 32.5584Z" fill="#1B1F1C"/>
<path d="M72.3011 49.1465H84.3184C84.6603 49.1465 84.9882 49.2824 85.23 49.5242C85.4717 49.7661 85.6075 50.0941 85.6075 50.4361V62.4578C85.6075 62.6271 85.5742 62.7948 85.5094 62.9512C85.4447 63.1076 85.3497 63.2498 85.23 63.3695C85.1104 63.4892 84.9683 63.5842 84.8119 63.649C84.6555 63.7138 84.4879 63.7471 84.3187 63.7471H72.301C71.9592 63.7471 71.6314 63.6113 71.3897 63.3695C71.148 63.1278 71.0122 62.7998 71.0122 62.4579V50.4358C71.0122 50.0939 71.148 49.7659 71.3897 49.5241C71.6314 49.2823 71.9593 49.1465 72.3011 49.1465Z" fill="#DCDDDE"/>
<path d="M72.3016 71.0015H84.3184C84.6603 71.0015 84.9882 71.1373 85.23 71.3792C85.4717 71.621 85.6075 71.9491 85.6075 72.2911V84.3132C85.6075 84.6552 85.4717 84.9832 85.23 85.225C84.9883 85.4668 84.6604 85.6026 84.3186 85.6026H72.301C71.9592 85.6026 71.6314 85.4668 71.3897 85.225C71.148 84.9833 71.0122 84.6553 71.0122 84.3134V72.2913C71.0122 71.9492 71.1481 71.6211 71.3899 71.3793C71.6317 71.1374 71.9596 71.0015 72.3016 71.0015Z" fill="#DCDDDE"/>
<path d="M72.3012 92.8564H84.3184C84.6603 92.8564 84.9882 92.9923 85.23 93.2342C85.4717 93.476 85.6075 93.804 85.6075 94.1461V106.168C85.6075 106.51 85.4717 106.838 85.23 107.08C84.9883 107.322 84.6604 107.457 84.3186 107.457H72.301C71.9592 107.457 71.6314 107.322 71.3897 107.08C71.148 106.838 71.0122 106.51 71.0122 106.168V94.1459C71.0122 93.8039 71.148 93.4759 71.3897 93.2341C71.6315 92.9923 71.9593 92.8564 72.3012 92.8564Z" fill="#DCDDDE"/>
<path d="M72.301 114.712H84.3184C84.6603 114.712 84.9882 114.848 85.23 115.09C85.4717 115.331 85.6075 115.66 85.6075 116.002V128.023C85.6075 128.365 85.4718 128.693 85.2301 128.935C84.9885 129.177 84.6608 129.312 84.319 129.312H72.301C71.9592 129.312 71.6314 129.177 71.3897 128.935C71.148 128.693 71.0122 128.365 71.0122 128.023V116.001C71.0122 115.659 71.148 115.331 71.3897 115.09C71.6314 114.848 71.9592 114.712 72.301 114.712Z" fill="#DCDDDE"/>
<path d="M63.3059 51.5322H18.1416V62.6634H63.3059V51.5322Z" fill="#DCDDDE"/>
<path d="M63.3059 72.9534H18.1416V84.0846H63.3059V72.9534Z" fill="#DCDDDE"/>
<path d="M63.3059 94.3743H18.1416V105.506H63.3059V94.3743Z" fill="#DCDDDE"/>
<path d="M63.3059 115.795H18.1416V126.926H63.3059V115.795Z" fill="#DCDDDE"/>
<path d="M76.252 63.1861C75.9968 63.1862 75.744 63.136 75.5081 63.0382C75.2723 62.9405 75.058 62.7972 74.8775 62.6166L71.3117 59.0134C71.131 58.8329 70.9877 58.6186 70.8898 58.3826C70.792 58.1466 70.7415 57.8936 70.7415 57.6382C70.7414 57.3827 70.7916 57.1297 70.8893 56.8937C70.987 56.6576 71.1302 56.4432 71.3108 56.2625C71.4914 56.0819 71.7058 55.9386 71.9417 55.8409C72.1777 55.7431 72.4306 55.6929 72.686 55.693C72.9413 55.6931 73.1942 55.7435 73.4301 55.8414C73.666 55.9393 73.8803 56.0827 74.0607 56.2635L76.1876 58.4273L82.4179 51.5975C82.5897 51.4079 82.7972 51.2541 83.0286 51.1449C83.2599 51.0357 83.5105 50.9733 83.766 50.9612C84.0215 50.949 84.2769 50.9875 84.5175 51.0743C84.7581 51.1611 84.9793 51.2946 85.1682 51.4671C85.3572 51.6395 85.5102 51.8476 85.6186 52.0794C85.7271 52.3112 85.7887 52.5621 85.7999 52.8177C85.8112 53.0733 85.7719 53.3287 85.6844 53.5691C85.5968 53.8095 85.4627 54.0303 85.2896 54.2187L77.6878 62.5523C77.5107 62.7465 77.2962 62.9027 77.057 63.0116C76.8179 63.1205 76.5592 63.1797 76.2966 63.1857C76.2814 63.186 76.2668 63.1861 76.252 63.1861Z" fill="black"/>
</svg>
