<svg width="30" height="30" viewBox="0 0 30 30" fill="none" xmlns="http://www.w3.org/2000/svg">
<path d="M11.9212 26.7C12.8378 27.5091 14.042 28 15.3607 28C16.6795 28 17.8836 27.5091 18.8003 26.7M23.1607 9.8C23.1607 7.73131 22.339 5.74735 20.8762 4.28457C19.4134 2.82178 17.4294 2 15.3607 2C13.2921 2 11.3081 2.82178 9.84531 4.28457C8.38253 5.74735 7.56074 7.73131 7.56074 9.8C7.56074 13.8172 6.54735 16.5677 5.41531 18.387C4.46041 19.9216 3.98296 20.6889 4.00046 20.903C4.01985 21.14 4.07006 21.2304 4.26105 21.3721C4.43354 21.5 5.21111 21.5 6.76625 21.5H23.9552C25.5104 21.5 26.2879 21.5 26.4604 21.3721C26.6514 21.2304 26.7016 21.14 26.721 20.903C26.7385 20.6889 26.2611 19.9216 25.3062 18.387C24.1741 16.5677 23.1607 13.8172 23.1607 9.8Z" stroke="#B4B4B4" stroke-width="2" stroke-linecap="round" stroke-linejoin="round"/>
</svg>
